<?xml version="1.0" encoding="UTF-8" standalone="no"?><!-- Generator: Gravit.io --><svg xmlns="http://www.w3.org/2000/svg" xmlns:xlink="http://www.w3.org/1999/xlink" style="isolation:isolate" viewBox="0 0 150 41" width="150pt" height="41pt"><defs><clipPath id="_clipPath_Fp9z3y8Kp6xw3eoLvrab4trWxOu5lp7h"><rect width="150" height="41"/></clipPath></defs><g clip-path="url(#_clipPath_Fp9z3y8Kp6xw3eoLvrab4trWxOu5lp7h)"><clipPath id="_clipPath_h5JVbcAs2tYHaAlAaetVfmmb4y3hIDxs"><rect x="0" y="0" width="150" height="40.909" transform="matrix(1,0,0,1,0,0)" fill="rgb(255,255,255)"/></clipPath><g clip-path="url(#_clipPath_h5JVbcAs2tYHaAlAaetVfmmb4y3hIDxs)"><g><rect x="122.727" y="0" width="13.636" height="40.909" transform="matrix(1,0,0,1,0,0)" fill="rgb(240,255,66)"/><rect x="0" y="0" width="13.636" height="40.909" transform="matrix(1,0,0,1,0,0)" fill="rgb(240,255,66)"/><rect x="0" y="0" width="40.909" height="13.636" transform="matrix(1,0,0,1,0,0)" fill="rgb(240,255,66)"/><rect x="109.091" y="13.636" width="40.909" height="13.636" transform="matrix(1,0,0,1,0,0)" fill="rgb(240,255,66)"/><rect x="54.545" y="13.636" width="40.909" height="13.636" transform="matrix(1,0,0,1,0,0)" fill="rgb(240,255,66)"/></g></g></g></svg>